<svg width="30" height="30" viewBox="0 0 30 30" fill="none" xmlns="http://www.w3.org/2000/svg">
<g id="open-outline">
<path id="Vector" d="M22.5 13.125V23.9062C22.5 24.214 22.4394 24.5188 22.3216 24.8032C22.2038 25.0875 22.0312 25.3459 21.8135 25.5635C21.5959 25.7812 21.3375 25.9538 21.0532 26.0716C20.7688 26.1894 20.464 26.25 20.1562 26.25H6.09375C5.47215 26.25 4.87601 26.0031 4.43647 25.5635C3.99693 25.124 3.75 24.5279 3.75 23.9062V9.84375C3.75 9.22215 3.99693 8.62601 4.43647 8.18647C4.87601 7.74693 5.47215 7.5 6.09375 7.5H15.907M19.6875 3.75H26.25V10.3125M13.125 16.875L25.7812 4.21875" stroke="#F55A02" stroke-width="2" stroke-linecap="round" stroke-linejoin="round"/>
</g>
</svg>
