<svg width="68" height="24" viewBox="0 0 68 24" fill="none" xmlns="http://www.w3.org/2000/svg">
<g id="elementoUPV-BL 1" clip-path="url(#clip0_108_223)">
<g id="Capa 2">
<g id="Capa 1">
<path id="Vector" d="M5.30443 24H16.0715C17.1161 23.5796 18.0101 23.018 18.7325 22.2984C20.4741 20.5631 21.345 17.8103 21.345 14.04V0H15.0109V13.1715C15.0109 13.8803 14.9825 14.6008 14.9272 15.3423C14.8839 16.037 14.7136 16.7179 14.425 17.3508C14.1429 17.9497 13.6981 18.4565 13.1418 18.8128C12.5676 19.186 11.75 19.3732 10.6892 19.3744C9.62839 19.3755 8.80556 19.1883 8.22074 18.8128C7.65768 18.4641 7.21046 17.9552 6.93585 17.3508C6.65747 16.7152 6.49311 16.0353 6.45036 15.3423C6.39344 14.6024 6.36666 13.8803 6.36666 13.1715V0H0V14.04C0 17.8109 0.876678 20.5634 2.63003 22.2975C3.35827 23.018 4.2556 23.5796 5.30443 24Z" fill="white"/>
<path id="Vector_2" d="M31.7479 24V16.1931H35.5147C38.2652 16.1931 40.3718 15.486 41.8344 14.072C43.2971 12.6579 44.0286 10.6665 44.0292 8.0978C44.0292 5.5252 43.2982 3.53298 41.8361 2.12113C40.3741 0.709286 38.2677 0.00224192 35.5172 0H25.3796V24H31.7479ZM31.7479 5.07626H33.8606C36.1994 5.07626 37.369 6.08344 37.3696 8.0978C37.3701 10.1122 36.2005 11.1182 33.8606 11.116H31.7479V5.07626Z" fill="white"/>
<path id="Vector_3" d="M59.868 24L68 4.93166V0H63.1827L57.2371 14.7462L51.3225 0H44.4025L54.6062 24H59.868Z" fill="white"/>
</g>
</g>
</g>
<defs>
<clipPath id="clip0_108_223">
<rect width="68" height="24" fill="white"/>
</clipPath>
</defs>
</svg>
